<svg xmlns:mydata="http://www.w3.org/2000/svg" mydata:contrastcolor="FFB500" mydata:template="SingleColorHex1" mydata:presentation="2.5" mydata:layouttype="undefined" mydata:specialfontid="undefined" mydata:id1="394" mydata:id2="121" mydata:companyname="natural outfits" mydata:companytagline="" version="1.1" xmlns="http://www.w3.org/2000/svg" xmlns:xlink="http://www.w3.org/1999/xlink" style="height: 391px;" viewBox="0 0 550 470"><g fill="#d50032" fill-rule="none" stroke="none" stroke-width="1" stroke-linecap="butt" stroke-linejoin="miter" stroke-miterlimit="10" stroke-dasharray="" stroke-dashoffset="0" font-family="none" font-weight="none" font-size="none" text-anchor="none" style="mix-blend-mode: normal"><g data-paper-data="{&quot;isGlobalGroup&quot;:true,&quot;bounds&quot;:{&quot;x&quot;:64.99999999999999,&quot;y&quot;:195.13569737150303,&quot;width&quot;:420,&quot;height&quot;:79.72860525699397}}"><g data-paper-data="{&quot;isSecondaryText&quot;:true}" fill-rule="nonzero" id="element-id-82988"><path d="M176.27646,257.02281c0.79373,0 1.52336,0.14043 2.18888,0.42129c0.66552,0.28086 1.23639,0.6991 1.71263,1.25471c0.47624,0.55561 0.84869,1.24555 1.11733,2.06982c0.26865,0.82426 0.40297,1.77369 0.40297,2.84829c0,1.07459 -0.13432,2.02097 -0.40297,2.83913c-0.26865,0.81816 -0.64109,1.50199 -1.11733,2.0515c-0.47624,0.54951 -1.04712,0.96469 -1.71263,1.24555c-0.66552,0.28086 -1.39514,0.42129 -2.18888,0.42129c-0.79373,0 -1.52031,-0.14043 -2.17972,-0.42129c-0.65941,-0.28086 -1.22724,-0.69604 -1.70348,-1.24555c-0.47624,-0.54951 -0.84869,-1.23334 -1.11733,-2.0515c-0.26865,-0.81816 -0.40297,-1.76453 -0.40297,-2.83913c0,-1.07459 0.13432,-2.02402 0.40297,-2.84829c0.26865,-0.82426 0.64109,-1.5142 1.11733,-2.06982c0.47624,-0.55561 1.04407,-0.97385 1.70348,-1.25471c0.65941,-0.28086 1.38598,-0.42129 2.17972,-0.42129zM176.27646,259.51392c-0.91585,0 -1.63021,0.34192 -2.14308,1.02575c-0.51287,0.68383 -0.76931,1.70958 -0.76931,3.07725c0,1.36767 0.25644,2.39036 0.76931,3.06809c0.51287,0.67773 1.22724,1.01659 2.14308,1.01659c0.91585,0 1.63631,-0.33886 2.1614,-1.01659c0.52509,-0.67773 0.78763,-1.70042 0.78763,-3.06809c0,-1.36767 -0.26254,-2.39341 -0.78763,-3.07725c-0.52509,-0.68383 -1.24555,-1.02575 -2.1614,-1.02575z" data-paper-data="{&quot;glyphName&quot;:&quot;O&quot;,&quot;glyphIndex&quot;:0,&quot;firstGlyphOfWord&quot;:true,&quot;word&quot;:1}" id="element-id-28135"></path><path d="M214.34433,265.24712c0,0.31749 0.05495,0.61667 0.16485,0.89753c0.1099,0.28086 0.26254,0.52814 0.45792,0.74184c0.19538,0.2137 0.42434,0.3816 0.68689,0.50372c0.26254,0.12211 0.54646,0.18317 0.85174,0.18317c0.30528,0 0.5892,-0.06106 0.85174,-0.18317c0.26254,-0.12211 0.49456,-0.29002 0.69604,-0.50372c0.20149,-0.2137 0.36023,-0.46098 0.47624,-0.74184c0.11601,-0.28086 0.17401,-0.58004 0.17401,-0.89753v-7.98619h2.49111v7.98619c0,0.68383 -0.12517,1.31882 -0.3755,1.90496c-0.25033,0.58614 -0.58614,1.09291 -1.00743,1.52031c-0.42129,0.4274 -0.9189,0.76321 -1.49283,1.00743c-0.57393,0.24423 -1.17839,0.36634 -1.81338,0.36634c-0.63499,0 -1.23334,-0.12211 -1.79506,-0.36634c-0.56172,-0.24423 -1.05322,-0.58004 -1.47451,-1.00743c-0.42129,-0.4274 -0.7571,-0.93416 -1.00743,-1.52031c-0.25033,-0.58614 -0.3755,-1.22113 -0.3755,-1.90496v-7.98619h2.49111z" data-paper-data="{&quot;glyphName&quot;:&quot;U&quot;,&quot;glyphIndex&quot;:1,&quot;word&quot;:1}" id="element-id-48518"></path><path d="M254.61676,269.93626h-2.47279v-10.18422h-3.42527v-2.49111h9.28669v2.49111h-3.38864z" data-paper-data="{&quot;glyphName&quot;:&quot;T&quot;,&quot;glyphIndex&quot;:2,&quot;word&quot;:1}" id="element-id-41672"></path><path d="M286.89916,262.408h3.09556v2.49111h-3.09556v5.03716h-2.49111v-12.67533h7.3451v2.49111h-4.85399z" data-paper-data="{&quot;glyphName&quot;:&quot;F&quot;,&quot;glyphIndex&quot;:3,&quot;word&quot;:1}" id="element-id-7337"></path><path d="M313.14569,257.26093h2.49111v12.67533h-2.49111z" data-paper-data="{&quot;glyphName&quot;:&quot;I&quot;,&quot;glyphIndex&quot;:4,&quot;word&quot;:1}" id="element-id-60990"></path><path d="M344.37882,269.93626h-2.47279v-10.18422h-3.42527v-2.49111h9.28669v2.49111h-3.38864z" data-paper-data="{&quot;glyphName&quot;:&quot;T&quot;,&quot;glyphIndex&quot;:5,&quot;word&quot;:1}" id="element-id-68582"></path><path d="M378.82269,257.13272c0.54951,0 1.05017,0.05495 1.50199,0.16485c0.45182,0.1099 0.8609,0.25338 1.22724,0.43045c0.36634,0.17706 0.69299,0.3816 0.97996,0.61362c0.28697,0.23201 0.53424,0.47014 0.74184,0.71436l-1.81338,1.70348c-0.35413,-0.36634 -0.75099,-0.66246 -1.1906,-0.88837c-0.43961,-0.22591 -0.9708,-0.33886 -1.59357,-0.33886c-0.52509,0 -0.96469,0.1038 -1.31882,0.31139c-0.35413,0.20759 -0.53119,0.45182 -0.53119,0.73268c0,0.28086 0.09464,0.50066 0.28391,0.65941c0.18928,0.15875 0.46708,0.30528 0.83342,0.43961c0.29307,0.1099 0.61667,0.2198 0.9708,0.32971c0.35413,0.1099 0.71131,0.2198 1.07154,0.32971c0.36023,0.1099 0.71131,0.22896 1.05322,0.35718c0.34192,0.12822 0.65941,0.2656 0.95248,0.41213c0.63499,0.31749 1.0807,0.71741 1.33714,1.19976c0.25644,0.48235 0.38466,1.09596 0.38466,1.84085c0,0.74489 -0.14654,1.36767 -0.43961,1.86833c-0.29307,0.50066 -0.67467,0.90364 -1.14481,1.20892c-0.47014,0.30528 -0.99217,0.52509 -1.5661,0.65941c-0.57393,0.13432 -1.13565,0.20149 -1.68516,0.20149c-1.36767,0 -2.47279,-0.18622 -3.31537,-0.55867c-0.84258,-0.37244 -1.49588,-0.88837 -1.95991,-1.54778c0.31749,-0.28086 0.62583,-0.55256 0.92501,-0.8151c0.29918,-0.26254 0.60141,-0.53424 0.90669,-0.8151c0.37855,0.39076 0.84258,0.72047 1.39209,0.98912c0.54951,0.26865 1.22724,0.40297 2.03318,0.40297c0.73268,0 1.32187,-0.12517 1.76759,-0.3755c0.44571,-0.25033 0.66857,-0.5953 0.66857,-1.03491c0,-0.30528 -0.08853,-0.56477 -0.2656,-0.77847c-0.17706,-0.2137 -0.40603,-0.39381 -0.68689,-0.54035c-0.28086,-0.14654 -0.60141,-0.27475 -0.96164,-0.38466c-0.36023,-0.1099 -0.72657,-0.2137 -1.09902,-0.31139c-0.37244,-0.09769 -0.73268,-0.19843 -1.0807,-0.30223c-0.34802,-0.1038 -0.65636,-0.23507 -0.92501,-0.39381c-0.63499,-0.36634 -1.09902,-0.78152 -1.39209,-1.24555c-0.29307,-0.46403 -0.43961,-1.07459 -0.43961,-1.8317c0,-0.47624 0.09769,-0.9189 0.29307,-1.32798c0.19538,-0.40908 0.47929,-0.76931 0.85174,-1.0807c0.37244,-0.31139 0.83037,-0.55561 1.37377,-0.73268c0.5434,-0.17706 1.16313,-0.2656 1.85917,-0.2656z" data-paper-data="{&quot;glyphName&quot;:&quot;S&quot;,&quot;glyphIndex&quot;:6,&quot;lastGlyphOfWord&quot;:true,&quot;word&quot;:1}" id="element-id-91315"></path></g><g data-paper-data="{&quot;isPrimaryText&quot;:true}" fill-rule="nonzero" id="element-id-71327"><path d="M193.26617,200.44765v19.93618l-22.39321,-20.55822v45.40846h11.19661v-19.93618l22.39321,20.55822v-45.40846z" data-paper-data="{&quot;glyphName&quot;:&quot;N&quot;,&quot;glyphIndex&quot;:0,&quot;firstGlyphOfWord&quot;:true,&quot;word&quot;:1}" id="element-id-35884"></path><path d="M239.55585,200.44765l-22.39321,44.78643h12.5091l9.88412,-19.74957l9.88412,19.74957h12.5091z" data-paper-data="{&quot;glyphName&quot;:&quot;A&quot;,&quot;glyphIndex&quot;:1,&quot;word&quot;:1}" id="element-id-87235"></path><path d="M263.76333,200.44765v11.19661h11.19661v33.58982h11.19661v-33.58982h11.19661v-11.19661z" data-paper-data="{&quot;glyphName&quot;:&quot;T&quot;,&quot;glyphIndex&quot;:2,&quot;word&quot;:1}" id="element-id-61908"></path><path d="M330.89114,200.44765v27.99152c0,3.08529 -2.51302,5.5983 -5.5983,5.5983c-3.08529,0 -5.5983,-2.51302 -5.5983,-5.5983v-27.99152h-11.19661v27.99152c0,9.26208 7.53283,16.79491 16.79491,16.79491c9.26208,0 16.79491,-7.53283 16.79491,-16.79491v-27.99152z" data-paper-data="{&quot;glyphName&quot;:&quot;U&quot;,&quot;glyphIndex&quot;:3,&quot;word&quot;:1}" id="element-id-84991"></path><path d="M388.37743,215.37646c0,-8.22951 -6.6993,-14.92881 -14.92881,-14.92881h-18.66101v44.78643h11.19661v-14.92881h3.23458l6.84237,14.92881h12.31627l-7.70078,-16.80113c4.59061,-2.55034 7.70078,-7.44574 7.70078,-13.05649zM377.18082,215.37646c0,2.05893 -1.67327,3.7322 -3.7322,3.7322h-7.4644v-7.4644h7.4644c2.05893,0 3.7322,1.67327 3.7322,3.7322z" data-paper-data="{&quot;glyphName&quot;:&quot;R&quot;,&quot;glyphIndex&quot;:4,&quot;word&quot;:1}" id="element-id-41953"></path><path d="M418.80524,200.44765l-22.39321,44.78643h12.5091l9.88412,-19.74957l9.88412,19.74957h12.5091z" data-paper-data="{&quot;glyphName&quot;:&quot;A&quot;,&quot;glyphIndex&quot;:5,&quot;word&quot;:1}" id="element-id-98871"></path><path d="M465.09492,234.03747v-33.58982h-11.19661v44.78643h31.10169v-11.19661z" data-paper-data="{&quot;glyphName&quot;:&quot;L&quot;,&quot;glyphIndex&quot;:6,&quot;lastGlyphOfWord&quot;:true,&quot;word&quot;:1}" id="element-id-46665"></path></g><g data-paper-data="{&quot;fillRule&quot;:&quot;evenodd&quot;,&quot;fillRuleOriginal&quot;:&quot;evenodd&quot;,&quot;isIcon&quot;:true,&quot;iconStyle&quot;:&quot;standalone&quot;,&quot;selectedEffects&quot;:{&quot;container&quot;:&quot;&quot;,&quot;transformation&quot;:&quot;&quot;,&quot;pattern&quot;:&quot;&quot;},&quot;bounds&quot;:{&quot;x&quot;:64.99999999999999,&quot;y&quot;:195.13569737150303,&quot;width&quot;:79.72860525699399,&quot;height&quot;:79.72860525699397},&quot;iconType&quot;:&quot;icon&quot;,&quot;rawIconId&quot;:&quot;54348&quot;,&quot;isDetailed&quot;:true,&quot;suitableAsStandaloneIcon&quot;:true}" fill-rule="evenodd" id="element-id-34513"><path d="M131.72221,208.14209c7.964,6.98688 13.00639,17.22758 13.00639,28.62966c0,0.07441 -0.00531,0.14706 -0.00531,0.22147c0,0.07441 0.00531,0.14706 0.00531,0.22147c0,20.79322 -16.8564,37.64962 -37.64962,37.64962c-0.07441,0 -0.14706,-0.00531 -0.22147,-0.00531c-0.07441,0 -0.14706,0.00531 -0.22147,0.00531c-11.40473,0 -21.6472,-5.04416 -28.63408,-13.01082c-7.96134,-6.98688 -13.00196,-17.22581 -13.00196,-28.62523c0,-21.00406 17.0885,-38.09256 38.09256,-38.09256c11.40207,0 21.64277,5.04239 28.62966,13.00639zM103.09256,196.02157c-20.51594,0 -37.20668,16.69074 -37.20668,37.20668c0,8.73117 3.03057,16.76338 8.08537,23.11687c-3.44251,-5.72451 -5.42775,-12.42083 -5.42775,-19.57337c0,-21.00406 17.0885,-38.09256 38.09256,-38.09256c7.15431,0 13.8524,1.98613 19.5778,5.4304c-6.35525,-5.05656 -14.38835,-8.08802 -23.12129,-8.08802zM73.86406,236.99321c0.04607,6.96474 2.2829,13.41478 6.04343,18.71053c5.88663,6.07089 14.11196,9.85888 23.18508,9.85888c17.82909,0 32.33438,-14.50529 32.33438,-32.33438c0,-9.07311 -3.78799,-17.29845 -9.85888,-23.18508c-5.29486,-3.76053 -11.74579,-5.99736 -18.71053,-6.04343c-18.17103,0.11959 -32.87387,14.82332 -32.99347,32.99347zM83.68751,260.14551c5.91586,5.81133 14.01895,9.40355 22.94855,9.40355c18.07359,0 32.77731,-14.70372 32.77731,-32.77731c0,-8.9296 -3.59222,-17.03269 -9.40355,-22.94855c3.95897,5.46938 6.30299,12.17456 6.30299,19.40506c0,18.31809 -14.90216,33.22025 -33.22025,33.22025c-7.2305,0 -13.93567,-2.34402 -19.40506,-6.30299z" data-paper-data="{&quot;isPathIcon&quot;:true}" id="element-id-17824"></path></g></g></g><g class="watermark-group" style="opacity:0.040000010281801224"><path class="watermark-path" d="M129.52,370.3a11.88,11.88,0,0,1,2.58,5.58,12,12,0,0,1,.11,3,11.81,11.81,0,0,1-.64,2.93,12.34,12.34,0,0,1-1.41,2.72,11.65,11.65,0,0,1-2.13,2.32,12,12,0,0,1-2.64,1.69,13,13,0,0,1-2.91.9,12.47,12.47,0,0,1-3,.12,12.17,12.17,0,0,1-2.93-.64,11.8,11.8,0,0,1-2.72-1.38,12.19,12.19,0,0,1-4-4.79,11.85,11.85,0,0,1-.89-2.92,12.14,12.14,0,0,1-.13-3,11.54,11.54,0,0,1,.64-2.92,11.67,11.67,0,0,1,3.5-5,11.44,11.44,0,0,1,2.67-1.69,11.64,11.64,0,0,1,2.92-.91,10.71,10.71,0,0,1,3-.12,11.68,11.68,0,0,1,5.66,2,11.7,11.7,0,0,1,2.34,2.12m-1.4,8.76a13,13,0,0,1-1.22,2.32,9.68,9.68,0,0,1-1.81,2,7.44,7.44,0,0,1-2.38,1.37,6.17,6.17,0,0,1-5.11-.46,8.73,8.73,0,0,1-3.85-4.58,6.69,6.69,0,0,1-.34-2.66,6.09,6.09,0,0,1,.77-2.47,7.15,7.15,0,0,1,1.75-2.11,9.58,9.58,0,0,1,1.09-.81,8.23,8.23,0,0,1,1.12-.63,8.14,8.14,0,0,1,1.19-.46,12.71,12.71,0,0,1,1.32-.37l2,2.38a12.83,12.83,0,0,0-1.56.17,7.86,7.86,0,0,0-1.23.32,4.5,4.5,0,0,0-1,.49,6.41,6.41,0,0,0-.93.67,4.49,4.49,0,0,0-1.15,1.39,3.87,3.87,0,0,0-.45,1.58,4.12,4.12,0,0,0,.26,1.63,6.11,6.11,0,0,0,2.36,2.82,4.43,4.43,0,0,0,1.57.53,3.91,3.91,0,0,0,1.62-.17,4.71,4.71,0,0,0,1.57-.89,10.5,10.5,0,0,0,.83-.79,5.71,5.71,0,0,0,.65-.93,10.13,10.13,0,0,0,.54-1.14,12.24,12.24,0,0,0,.44-1.49l2,2.33m-14.46,4.55a8.86,8.86,0,0,0,2.78,2.22,9,9,0,0,0,3.29.94,9.15,9.15,0,0,0,3.39-.37,8.68,8.68,0,0,0,3.11-1.69,8.8,8.8,0,0,0,2.22-2.78,9.15,9.15,0,0,0,1-3.29,8.95,8.95,0,0,0-4.83-8.76,9,9,0,0,0-6.73-.57,9,9,0,0,0-5.33,4.47,8.94,8.94,0,0,0-.57,6.71,8.76,8.76,0,0,0,1.7,3.12"></path><path class="watermark-path" d="M147,349c-.48.12-1.09.31-1.82.57a24.37,24.37,0,0,0-2.4,1A28.35,28.35,0,0,0,140,352a20.72,20.72,0,0,0-2.71,1.94c-.7.59-1.28,1.11-1.74,1.57a15.07,15.07,0,0,0-1.1,1.22,4.09,4.09,0,0,0-.59.92,2.32,2.32,0,0,0-.22.64,1.16,1.16,0,0,0,0,.47,1.83,1.83,0,0,0,.18.29,1.15,1.15,0,0,0,1,.37,5.54,5.54,0,0,0,1.51-.38q.87-.35,1.95-.9l2.26-1.18q1.2-.65,2.49-1.29c.87-.44,1.73-.83,2.59-1.17a18.94,18.94,0,0,1,2.6-.81,9.27,9.27,0,0,1,2.46-.29,6.25,6.25,0,0,1,2.24.49,5.12,5.12,0,0,1,1.89,1.47,6.35,6.35,0,0,1,1.41,2.61,6,6,0,0,1,.09,2.6,8.3,8.3,0,0,1-.9,2.52,17.79,17.79,0,0,1-1.62,2.37,23.92,23.92,0,0,1-2,2.15c-.72.67-1.41,1.29-2.09,1.87a33.79,33.79,0,0,1-5.33,3.7,32.29,32.29,0,0,1-4.91,2.28l-3.61-4.3a21.38,21.38,0,0,0,5.39-1.87,27.2,27.2,0,0,0,5.4-3.56,21.59,21.59,0,0,0,2.38-2.27,8.67,8.67,0,0,0,1.18-1.7,2.32,2.32,0,0,0,.27-1.19,1.34,1.34,0,0,0-.28-.74,1.21,1.21,0,0,0-1-.42,4.32,4.32,0,0,0-1.55.34,15.77,15.77,0,0,0-2,.88c-.72.37-1.48.77-2.27,1.21l-2.45,1.3c-.85.45-1.7.85-2.56,1.21a22.37,22.37,0,0,1-2.54.86,10,10,0,0,1-2.43.32,5.76,5.76,0,0,1-2.2-.45,5,5,0,0,1-1.89-1.45,6.12,6.12,0,0,1-1.31-2.41,6,6,0,0,1-.1-2.41,8.28,8.28,0,0,1,.81-2.38,14.06,14.06,0,0,1,1.49-2.24,22.37,22.37,0,0,1,1.85-2.05q1-1,2-1.77c.7-.59,1.44-1.15,2.23-1.7s1.62-1.06,2.44-1.53,1.63-.91,2.43-1.3,1.58-.75,2.3-1L147,349"></path><path class="watermark-path" d="M186.76,337.57l-10.6-12.63,3.92,18.24-4.66,3.91-17.27-7,10.6,12.63-4.86,4.07-15.09-18,6.59-5.54,18.69,7.52-4.15-19.71,6.57-5.52,15.09,18-4.83,4.05"></path><path class="watermark-path" d="M208.84,313.24l-10,8.42,1.16,4.82L194.56,331l-5.68-25.89,5.42-4.55,24.51,10.09-5.42,4.55-4.55-2m-11.23,3.45,6.57-5.52-8.83-3.87,2.26,9.39"></path><path class="watermark-path" d="M227.49,281.38c-.48.12-1.09.31-1.82.57a24.37,24.37,0,0,0-2.4,1,26.11,26.11,0,0,0-2.7,1.47,20.72,20.72,0,0,0-2.71,1.94c-.7.59-1.28,1.11-1.74,1.57a13.39,13.39,0,0,0-1.1,1.22,4.29,4.29,0,0,0-.59.91,2.48,2.48,0,0,0-.22.65,1.16,1.16,0,0,0,0,.47,1.83,1.83,0,0,0,.18.29,1.15,1.15,0,0,0,1,.37,5.54,5.54,0,0,0,1.51-.38q.87-.34,2-.9l2.26-1.18q1.2-.64,2.49-1.29c.87-.44,1.73-.83,2.59-1.17a18.94,18.94,0,0,1,2.6-.81,9.27,9.27,0,0,1,2.46-.29,6.08,6.08,0,0,1,2.24.49,5.09,5.09,0,0,1,1.89,1.46,6.47,6.47,0,0,1,1.41,2.61,6.07,6.07,0,0,1,.09,2.61,8.3,8.3,0,0,1-.9,2.52,16.32,16.32,0,0,1-1.63,2.36,21.41,21.41,0,0,1-2,2.16c-.72.67-1.41,1.29-2.1,1.86a33.36,33.36,0,0,1-5.32,3.71,31.92,31.92,0,0,1-4.92,2.28l-3.6-4.3a21.38,21.38,0,0,0,5.39-1.87,27.2,27.2,0,0,0,5.4-3.56,21.59,21.59,0,0,0,2.38-2.27,8.67,8.67,0,0,0,1.18-1.7A2.32,2.32,0,0,0,231,293a1.34,1.34,0,0,0-.28-.74,1.21,1.21,0,0,0-1-.42,4.32,4.32,0,0,0-1.55.34,16.54,16.54,0,0,0-2,.88c-.71.37-1.47.77-2.26,1.21l-2.46,1.3c-.84.44-1.7.85-2.55,1.21a24.53,24.53,0,0,1-2.54.86A10,10,0,0,1,214,298a5.76,5.76,0,0,1-2.2-.45,5,5,0,0,1-1.89-1.45,6.12,6.12,0,0,1-1.31-2.41,5.78,5.78,0,0,1-.1-2.41,8,8,0,0,1,.81-2.38,14.61,14.61,0,0,1,1.49-2.25,22.26,22.26,0,0,1,1.85-2q1-1,2-1.77c.7-.59,1.44-1.15,2.23-1.7s1.62-1.06,2.44-1.53,1.63-.91,2.43-1.31,1.58-.74,2.3-1l3.5,4.16"></path><path class="watermark-path" d="M261.64,274.74l-6.29-7.5L243,277.61l6.3,7.5-4.86,4.07-15.09-18,4.85-4.08,5.49,6.55L252,263.3l-5.49-6.55,4.86-4.07,15.09,18-4.86,4.08"></path><path class="watermark-path" d="M272.18,265.9l-15.09-18,4.86-4.08,15.09,18-4.86,4.08"></path><path class="watermark-path" d="M299.65,242.85l-22.51-2.18L287.51,253l-4.85,4.08-15.1-18,5.28-4.43,22.56,2.22L285,224.5l4.83-4.06,15.09,18-5.26,4.42"></path><path class="watermark-path" d="M306.68,205.52a31.88,31.88,0,0,1,5.29-3.66,34.48,34.48,0,0,1,5.14-2.35l3.69,4.39a20.77,20.77,0,0,0-2.37.61,20.47,20.47,0,0,0-2.61,1,25.12,25.12,0,0,0-2.76,1.49,23.9,23.9,0,0,0-2.8,2,20.42,20.42,0,0,0-2.8,2.77,12.77,12.77,0,0,0-1.64,2.52,7,7,0,0,0-.68,2.24,6,6,0,0,0,.66,3.64,8.16,8.16,0,0,0,.94,1.38,9.12,9.12,0,0,0,1.08,1.07,6.39,6.39,0,0,0,1.47.91,6.73,6.73,0,0,0,1.88.48,6.54,6.54,0,0,0,2.28-.18,11.67,11.67,0,0,0,2.74-1.07,19.38,19.38,0,0,0,3.18-2.22c.57-.48,1.06-.92,1.46-1.31a14.57,14.57,0,0,0,1-1.13,11.46,11.46,0,0,0,.81-1.05l.74-1.09-1.82-2.17-5.45,4.57-3.31-3.94,10.31-8.65,7.71,9.19a29,29,0,0,1-1.67,2.43q-1,1.26-2.1,2.52c-.74.84-1.5,1.65-2.3,2.44s-1.58,1.5-2.33,2.14a31,31,0,0,1-3.59,2.61,22.55,22.55,0,0,1-3.64,1.83,15.64,15.64,0,0,1-3.63.89,10.72,10.72,0,0,1-3.49-.15,10.45,10.45,0,0,1-3.28-1.33,12.54,12.54,0,0,1-3-2.67,12,12,0,0,1-2.08-3.44,10.45,10.45,0,0,1-.71-3.5,11.14,11.14,0,0,1,.51-3.51,15.72,15.72,0,0,1,1.56-3.43,21.62,21.62,0,0,1,2.42-3.28,30.3,30.3,0,0,1,3.15-3"></path><path class="watermark-path" d="M336.91,211.59l-15.1-18,4.86-4.08,11.79,14,13.13-11,3.31,3.94-18,15.1"></path><path class="watermark-path" d="M374.54,164.71a12.28,12.28,0,0,1,2.59,4.81,10.44,10.44,0,0,1,0,5,14.62,14.62,0,0,1-2.33,5,25.55,25.55,0,0,1-4.56,4.85,26.07,26.07,0,0,1-5.6,3.67,14.79,14.79,0,0,1-5.38,1.43,10.43,10.43,0,0,1-4.94-.89,13.24,13.24,0,0,1-6.87-8.18,10.48,10.48,0,0,1,0-5,14.51,14.51,0,0,1,2.36-5,25.23,25.23,0,0,1,4.57-4.89,25,25,0,0,1,5.59-3.64,14.45,14.45,0,0,1,5.35-1.43,10.31,10.31,0,0,1,4.93.92,12.22,12.22,0,0,1,4.28,3.38m-4.91,4.11a8.36,8.36,0,0,0-2-1.72,5.5,5.5,0,0,0-2.65-.85,7.72,7.72,0,0,0-3.32.57,14.49,14.49,0,0,0-4,2.52,16.72,16.72,0,0,0-2.38,2.4,10.15,10.15,0,0,0-1.39,2.24,6.71,6.71,0,0,0-.56,2.1,5.69,5.69,0,0,0,.1,1.9,6.21,6.21,0,0,0,.61,1.69,9.85,9.85,0,0,0,1,1.44,10.48,10.48,0,0,0,1.26,1.23,6.67,6.67,0,0,0,1.57.92,6.1,6.1,0,0,0,1.85.41,6.8,6.8,0,0,0,2.15-.2,11.06,11.06,0,0,0,2.45-1,17.67,17.67,0,0,0,2.77-1.94,14.39,14.39,0,0,0,3.18-3.52,7.74,7.74,0,0,0,1.14-3.17,5.54,5.54,0,0,0-.37-2.74,8.52,8.52,0,0,0-1.36-2.3"></path><path class="watermark-path" d="M382.66,141.76A32.3,32.3,0,0,1,388,138.1a34.12,34.12,0,0,1,5.15-2.35l3.69,4.4a19.62,19.62,0,0,0-2.37.6,22.08,22.08,0,0,0-2.61,1,26,26,0,0,0-2.77,1.49,23.9,23.9,0,0,0-2.8,2,21,21,0,0,0-2.8,2.78,13.19,13.19,0,0,0-1.64,2.51,7.29,7.29,0,0,0-.68,2.24,6.36,6.36,0,0,0,.06,2,5.8,5.8,0,0,0,.61,1.68,8.12,8.12,0,0,0,.93,1.38,9.16,9.16,0,0,0,1.08,1.08,6.56,6.56,0,0,0,1.48.9,6,6,0,0,0,1.87.48,6.76,6.76,0,0,0,2.28-.17,12,12,0,0,0,2.74-1.08,18.57,18.57,0,0,0,3.18-2.22c.58-.48,1.06-.92,1.46-1.31s.75-.77,1.05-1.12.57-.72.81-1.06l.73-1.09-1.82-2.17-5.45,4.57-3.3-3.94,10.3-8.65,7.71,9.19a29,29,0,0,1-1.67,2.43q-1,1.26-2.1,2.52c-.73.84-1.5,1.66-2.3,2.44s-1.57,1.5-2.33,2.14a31,31,0,0,1-3.59,2.61,22.15,22.15,0,0,1-3.64,1.83,15.56,15.56,0,0,1-3.62.89,11,11,0,0,1-3.49-.14,10.84,10.84,0,0,1-3.28-1.33,12.82,12.82,0,0,1-3-2.68,12.12,12.12,0,0,1-2.08-3.43A10.71,10.71,0,0,1,375,155a11.18,11.18,0,0,1,.51-3.51,15.51,15.51,0,0,1,1.57-3.43,21.44,21.44,0,0,1,2.42-3.28,30.19,30.19,0,0,1,3.14-3"></path><path class="watermark-path" d="M428.63,119.31a12.26,12.26,0,0,1,2.59,4.82,10.44,10.44,0,0,1,0,5,14.53,14.53,0,0,1-2.34,5,25.29,25.29,0,0,1-4.56,4.86,26,26,0,0,1-5.59,3.67,14.84,14.84,0,0,1-5.38,1.43,10.61,10.61,0,0,1-4.95-.89,12.15,12.15,0,0,1-4.3-3.37,12,12,0,0,1-2.56-4.81,10.48,10.48,0,0,1,0-5,14.39,14.39,0,0,1,2.35-5,27.89,27.89,0,0,1,10.16-8.53,14.49,14.49,0,0,1,5.36-1.43,10.27,10.27,0,0,1,4.92.92,12.21,12.21,0,0,1,4.28,3.37m-4.91,4.12a8.17,8.17,0,0,0-2-1.72,5.58,5.58,0,0,0-2.65-.86,7.86,7.86,0,0,0-3.31.58,14.49,14.49,0,0,0-4,2.52,16.21,16.21,0,0,0-2.38,2.4,9.85,9.85,0,0,0-1.4,2.24,7,7,0,0,0-.56,2.1,6,6,0,0,0,.1,1.9,6.23,6.23,0,0,0,.62,1.69,8.49,8.49,0,0,0,1,1.44,9.18,9.18,0,0,0,1.26,1.23,6.67,6.67,0,0,0,1.57.92,6,6,0,0,0,1.84.41,6.86,6.86,0,0,0,2.16-.2,11.26,11.26,0,0,0,2.45-1,17.62,17.62,0,0,0,2.76-1.94,14.67,14.67,0,0,0,3.19-3.52,7.71,7.71,0,0,0,1.13-3.17,5.53,5.53,0,0,0-.36-2.74,8.55,8.55,0,0,0-1.37-2.3"></path></g><rect data-element-id="element-id-71327" stroke-width="2" fill="transparent" class="invisible-element-box grouping-element" x="171" y="200" width="314" height="46" data-element-name="isPrimaryText"></rect><rect data-element-id="element-id-34513" stroke-width="2" fill="transparent" class="invisible-element-box grouping-element" x="65" y="195" width="80" height="80" data-element-name="isIcon"></rect><rect data-element-id="element-id-17824" stroke-width="2" fill="transparent" class="invisible-element-box individual-element" x="65" y="195" width="80" height="80"></rect><rect data-element-id="element-id-82988" stroke-width="2" fill="transparent" class="invisible-element-box grouping-element" x="171" y="257" width="213" height="13" data-element-name="isSecondaryText"></rect><rect data-element-id="element-id-87235" stroke-width="2" fill="transparent" class="invisible-element-box individual-element" x="217" y="200" width="45" height="45"></rect><rect data-element-id="element-id-98871" stroke-width="2" fill="transparent" class="invisible-element-box individual-element" x="396" y="200" width="45" height="45"></rect><rect data-element-id="element-id-35884" stroke-width="2" fill="transparent" class="invisible-element-box individual-element" x="171" y="200" width="34" height="46"></rect><rect data-element-id="element-id-61908" stroke-width="2" fill="transparent" class="invisible-element-box individual-element" x="264" y="200" width="34" height="45"></rect><rect data-element-id="element-id-84991" stroke-width="2" fill="transparent" class="invisible-element-box individual-element" x="308" y="200" width="34" height="45"></rect><rect data-element-id="element-id-41953" stroke-width="2" fill="transparent" class="invisible-element-box individual-element" x="355" y="200" width="34" height="45"></rect><rect data-element-id="element-id-46665" stroke-width="2" fill="transparent" class="invisible-element-box individual-element" x="454" y="200" width="31" height="45"></rect><rect data-element-id="element-id-28135" stroke-width="2" fill="transparent" class="invisible-element-box individual-element" x="171" y="257" width="11" height="13"></rect><rect data-element-id="element-id-91315" stroke-width="2" fill="transparent" class="invisible-element-box individual-element" x="374" y="257" width="10" height="13"></rect><rect data-element-id="element-id-48518" stroke-width="2" fill="transparent" class="invisible-element-box individual-element" x="212" y="257" width="9" height="13"></rect><rect data-element-id="element-id-41672" stroke-width="2" fill="transparent" class="invisible-element-box individual-element" x="249" y="257" width="9" height="13"></rect><rect data-element-id="element-id-68582" stroke-width="2" fill="transparent" class="invisible-element-box individual-element" x="338" y="257" width="9" height="13"></rect><rect data-element-id="element-id-7337" stroke-width="2" fill="transparent" class="invisible-element-box individual-element" x="284" y="257" width="7" height="13"></rect><rect data-element-id="element-id-60990" stroke-width="2" fill="transparent" class="invisible-element-box individual-element" x="313" y="257" width="2" height="13"></rect></svg>